<?xml version="1.0" standalone="no"?><!DOCTYPE svg PUBLIC "-//W3C//DTD SVG 1.1//EN" "http://www.w3.org/Graphics/SVG/1.1/DTD/svg11.dtd"><svg t="1669260589363" class="icon" viewBox="0 0 1024 1024" version="1.1" xmlns="http://www.w3.org/2000/svg" p-id="48980" xmlns:xlink="http://www.w3.org/1999/xlink" width="200" height="200"><path d="M125.12256 644.38272a43.2128 43.2128 0 1 0 0-86.40512 43.2128 43.2128 0 0 0 0 86.40512z" fill="#005CFF" p-id="48981"></path><path d="M96.48128 518.656l42.2912 0.90112a12.67712 12.67712 0 0 0 12.94336-12.40064v-0.01024c3.93216-161.50528 114.2784-300.91264 270.57152-341.82144 193.16736-50.14528 390.4 65.792 440.54528 258.94912a361.1648 361.1648 0 0 1 11.50976 101.41696l-107.95008-92.0576c-34.78528-29.66528-87.57248-22.8864-113.72544 14.61248L538.51136 611.92192a38.7072 38.7072 0 0 1-49.46944 12.26752l-57.92768-29.83936a77.40416 77.40416 0 0 0-101.39648 28.28288l-83.4048 135.68a363.49952 363.49952 0 0 1-54.4256-77.49632l-0.01024-0.02048a12.67712 12.67712 0 0 0-17.05984-5.45792l-37.61152 19.3536a12.65664 12.65664 0 0 0-5.45792 17.07008 434.0224 434.0224 0 0 0 383.00672 232.02816l-0.02048 0.1536a426.97728 426.97728 0 0 0 368.11776-211.38432A428.96384 428.96384 0 0 0 405.37088 99.85024C219.8016 148.41856 88.77056 313.92768 84.08064 505.7024a12.67712 12.67712 0 0 0 12.40064 12.9536z m507.40224 346.1632c-108.8 27.62752-220.73344 3.08224-306.46272-60.49792l75.776-123.37152a38.7072 38.7072 0 0 1 50.71872-14.14144l56.55552 29.15328a77.40416 77.40416 0 0 0 98.95936-24.5248l110.3872-158.26944a38.7072 38.7072 0 0 1 56.86272-7.30112l116.3776 99.2768c-31.76448 122.9824-127.51872 225.49504-259.1744 259.67616z" fill="#005CFF" p-id="48982"></path><path d="M525.80352 376.84224c0-64.21504-52.04992-116.26496-116.25472-116.26496-64.21504 0-116.26496 52.04992-116.26496 116.26496 0 64.2048 52.04992 116.26496 116.26496 116.26496 64.17408-0.07168 116.18304-52.08064 116.25472-116.26496z m-190.24896 0a73.99424 73.99424 0 1 1 147.97824 0.01024 73.99424 73.99424 0 0 1-147.97824-0.01024z" fill="#005CFF" p-id="48983"></path></svg>